<svg width="1024" height="1024" viewBox="0 0 1024 1024" fill="none" xmlns="http://www.w3.org/2000/svg">
  <defs>
    <linearGradient id="panel-fill" x1="208" y1="132" x2="848" y2="760" gradientUnits="userSpaceOnUse">
      <stop stop-color="#11233E" />
      <stop offset="0.62" stop-color="#1D467B" />
      <stop offset="1" stop-color="#176F73" />
    </linearGradient>
    <linearGradient id="line-fill" x1="330" y1="612" x2="736" y2="350" gradientUnits="userSpaceOnUse">
      <stop stop-color="#7ED9FF" />
      <stop offset="1" stop-color="#E0F8FF" />
    </linearGradient>
    <linearGradient id="watch-fill" x1="514" y1="694" x2="514" y2="886" gradientUnits="userSpaceOnUse">
      <stop stop-color="#F5CA77" />
      <stop offset="1" stop-color="#E99B45" />
    </linearGradient>
    <linearGradient id="rise-fill" x1="666" y1="630" x2="666" y2="886" gradientUnits="userSpaceOnUse">
      <stop stop-color="#55DD92" />
      <stop offset="1" stop-color="#159C86" />
    </linearGradient>
    <filter id="panel-shadow" x="126" y="110" width="772" height="820" filterUnits="userSpaceOnUse" color-interpolation-filters="sRGB">
      <feDropShadow dx="0" dy="22" stdDeviation="20" flood-color="#08101F" flood-opacity="0.22" />
    </filter>
    <filter id="bar-shadow" x="236" y="612" width="528" height="334" filterUnits="userSpaceOnUse" color-interpolation-filters="sRGB">
      <feDropShadow dx="0" dy="16" stdDeviation="16" flood-color="#08101F" flood-opacity="0.18" />
    </filter>
  </defs>

  <ellipse cx="512" cy="900" rx="254" ry="46" fill="#08101F" fill-opacity="0.14" />

  <g filter="url(#panel-shadow)">
    <rect x="168" y="128" width="688" height="560" rx="116" fill="url(#panel-fill)" />
    <rect x="192" y="152" width="640" height="512" rx="92" fill="#0A172B" fill-opacity="0.22" stroke="#F9FBFF" stroke-opacity="0.78" stroke-width="22" />

    <path d="M302 258V588" stroke="#F9FBFF" stroke-opacity="0.16" stroke-width="16" stroke-linecap="round" />
    <path d="M454 238V588" stroke="#F9FBFF" stroke-opacity="0.11" stroke-width="12" stroke-linecap="round" />
    <path d="M606 238V588" stroke="#F9FBFF" stroke-opacity="0.11" stroke-width="12" stroke-linecap="round" />
    <path d="M270 358H754" stroke="#F9FBFF" stroke-opacity="0.12" stroke-width="12" stroke-linecap="round" />
    <path d="M270 506H754" stroke="#F9FBFF" stroke-opacity="0.1" stroke-width="12" stroke-linecap="round" />

    <path
      d="M304 556L392 492L478 526L596 410L720 328"
      stroke="url(#line-fill)"
      stroke-width="36"
      stroke-linecap="round"
      stroke-linejoin="round"
    />

    <circle cx="720" cy="328" r="74" fill="#F6CC80" fill-opacity="0.18" />
    <circle cx="720" cy="328" r="50" fill="#F6CC80" />
    <circle cx="720" cy="328" r="18" fill="#13233D" />
  </g>

  <g filter="url(#bar-shadow)">
    <path d="M314 704V888" stroke="#DCEBFF" stroke-opacity="0.42" stroke-width="16" stroke-linecap="round" />
    <rect x="268" y="728" width="92" height="160" rx="30" fill="#F6F9FF" />

    <path d="M514 664V888" stroke="#F0B66A" stroke-opacity="0.44" stroke-width="16" stroke-linecap="round" />
    <rect x="468" y="688" width="92" height="200" rx="30" fill="url(#watch-fill)" />

    <path d="M666 600V888" stroke="#32C18E" stroke-opacity="0.5" stroke-width="16" stroke-linecap="round" />
    <rect x="620" y="624" width="92" height="264" rx="30" fill="url(#rise-fill)" />
  </g>
</svg>
