<svg width="1024" height="1024" viewBox="0 0 1024 1024" fill="none" xmlns="http://www.w3.org/2000/svg">
  <defs>
    <linearGradient id="base-fill" x1="188" y1="148" x2="844" y2="892" gradientUnits="userSpaceOnUse">
      <stop stop-color="#F7F1E4" />
      <stop offset="1" stop-color="#E8DDC8" />
    </linearGradient>
    <linearGradient id="frame-fill" x1="274" y1="206" x2="766" y2="702" gradientUnits="userSpaceOnUse">
      <stop stop-color="#173257" />
      <stop offset="0.55" stop-color="#1D4F86" />
      <stop offset="1" stop-color="#1F7E74" />
    </linearGradient>
    <linearGradient id="screen-fill" x1="320" y1="244" x2="724" y2="624" gradientUnits="userSpaceOnUse">
      <stop stop-color="#0F213C" />
      <stop offset="1" stop-color="#15365B" />
    </linearGradient>
    <linearGradient id="line-fill" x1="364" y1="566" x2="682" y2="354" gradientUnits="userSpaceOnUse">
      <stop stop-color="#8BE0FF" />
      <stop offset="1" stop-color="#F4FBFF" />
    </linearGradient>
    <linearGradient id="bar-a" x1="392" y1="654" x2="392" y2="836" gradientUnits="userSpaceOnUse">
      <stop stop-color="#F8D78D" />
      <stop offset="1" stop-color="#E7A34D" />
    </linearGradient>
    <linearGradient id="bar-b" x1="512" y1="604" x2="512" y2="836" gradientUnits="userSpaceOnUse">
      <stop stop-color="#74E3A2" />
      <stop offset="1" stop-color="#25A37C" />
    </linearGradient>
    <linearGradient id="bar-c" x1="632" y1="680" x2="632" y2="836" gradientUnits="userSpaceOnUse">
      <stop stop-color="#A8D7FF" />
      <stop offset="1" stop-color="#5A8EDE" />
    </linearGradient>
    <filter
            id="shadow-soft"
            x="122"
            y="118"
            width="780"
            height="794"
            filterUnits="userSpaceOnUse"
            color-interpolation-filters="sRGB"
        >
      <feDropShadow dx="0" dy="28" stdDeviation="30" flood-color="#3B2C15" flood-opacity="0.14" />
    </filter>
    <filter
            id="shadow-screen"
            x="222"
            y="170"
            width="580"
            height="574"
            filterUnits="userSpaceOnUse"
            color-interpolation-filters="sRGB"
        >
      <feDropShadow dx="0" dy="18" stdDeviation="18" flood-color="#07121F" flood-opacity="0.16" />
    </filter>
  </defs>

  <g filter="url(#shadow-soft)">
    <rect x="108" y="92" width="808" height="808" rx="220" fill="url(#base-fill)" />
    <rect x="128" y="112" width="768" height="768" rx="202" fill="#FFFFFF" fill-opacity="0.3" />
  </g>

  <g filter="url(#shadow-screen)">
    <rect x="220" y="176" width="584" height="584" rx="146" fill="url(#frame-fill)" />
    <rect x="252" y="208" width="520" height="520" rx="118" fill="url(#screen-fill)" />
    <rect
            x="284"
            y="240"
            width="456"
            height="456"
            rx="92"
            fill="#0A1930"
            fill-opacity="0.3"
            stroke="#F8FBFF"
            stroke-opacity="0.7"
            stroke-width="12"
        />

    <path d="M362 360H662" stroke="#DCEBFF" stroke-opacity="0.14" stroke-width="10" stroke-linecap="round" />
    <path d="M362 474H662" stroke="#DCEBFF" stroke-opacity="0.14" stroke-width="10" stroke-linecap="round" />
    <path d="M362 588H662" stroke="#DCEBFF" stroke-opacity="0.14" stroke-width="10" stroke-linecap="round" />
    <path d="M380 618V322" stroke="#DCEBFF" stroke-opacity="0.12" stroke-width="10" stroke-linecap="round" />
    <path d="M512 618V322" stroke="#DCEBFF" stroke-opacity="0.08" stroke-width="8" stroke-linecap="round" />
    <path d="M644 618V322" stroke="#DCEBFF" stroke-opacity="0.08" stroke-width="8" stroke-linecap="round" />

    <path
            d="M366 576L446 520L520 548L610 438L694 370"
            stroke="url(#line-fill)"
            stroke-width="32"
            stroke-linecap="round"
            stroke-linejoin="round"
        />
    <circle cx="694" cy="370" r="38" fill="#F8D78D" />
    <circle cx="694" cy="370" r="13" fill="#15365B" />
  </g>

  <rect x="332" y="686" width="102" height="196" rx="34" fill="url(#bar-a)" />
  <rect x="462" y="626" width="102" height="256" rx="34" fill="url(#bar-b)" />
  <rect x="592" y="714" width="102" height="168" rx="34" fill="url(#bar-c)" />

  <rect x="338" y="900" width="348" height="34" rx="17" fill="#0C1930" fill-opacity="0.18" />
</svg>
