<svg width="256" height="256" viewBox="0 0 256 256" fill="none" xmlns="http://www.w3.org/2000/svg">
  <defs>
    <linearGradient id="frame-fill" x1="56" y1="34" x2="190" y2="182" gradientUnits="userSpaceOnUse">
      <stop stop-color="#163153" />
      <stop offset="0.58" stop-color="#1E4E85" />
      <stop offset="1" stop-color="#1C7B70" />
    </linearGradient>
    <linearGradient id="screen-fill" x1="70" y1="48" x2="176" y2="154" gradientUnits="userSpaceOnUse">
      <stop stop-color="#0C1D35" />
      <stop offset="1" stop-color="#14365D" />
    </linearGradient>
    <linearGradient id="line-fill" x1="88" y1="138" x2="156" y2="92" gradientUnits="userSpaceOnUse">
      <stop stop-color="#88DFFF" />
      <stop offset="1" stop-color="#F2FAFF" />
    </linearGradient>
    <linearGradient id="bar-a" x1="97" y1="162" x2="97" y2="212" gradientUnits="userSpaceOnUse">
      <stop stop-color="#F8D78D" />
      <stop offset="1" stop-color="#E8A44B" />
    </linearGradient>
    <linearGradient id="bar-b" x1="128" y1="148" x2="128" y2="212" gradientUnits="userSpaceOnUse">
      <stop stop-color="#75E1A1" />
      <stop offset="1" stop-color="#249F7B" />
    </linearGradient>
    <linearGradient id="bar-c" x1="159" y1="170" x2="159" y2="212" gradientUnits="userSpaceOnUse">
      <stop stop-color="#A7D7FF" />
      <stop offset="1" stop-color="#5B8EDF" />
    </linearGradient>
  </defs>

  <rect x="46" y="28" width="164" height="164" rx="42" fill="url(#frame-fill)" />
  <rect x="55" y="37" width="146" height="146" rx="34" fill="url(#screen-fill)" />
  <rect
        x="64"
        y="46"
        width="128"
        height="128"
        rx="28"
        fill="#0A1930"
        fill-opacity="0.3"
        stroke="#F8FBFF"
        stroke-opacity="0.72"
        stroke-width="3.5"
    />

  <path d="M85 84H171" stroke="#DCEBFF" stroke-opacity="0.16" stroke-width="3.5" stroke-linecap="round" />
  <path d="M85 116H171" stroke="#DCEBFF" stroke-opacity="0.16" stroke-width="3.5" stroke-linecap="round" />
  <path d="M85 148H171" stroke="#DCEBFF" stroke-opacity="0.16" stroke-width="3.5" stroke-linecap="round" />
  <path d="M90 158V72" stroke="#DCEBFF" stroke-opacity="0.12" stroke-width="3.5" stroke-linecap="round" />
  <path d="M128 158V72" stroke="#DCEBFF" stroke-opacity="0.08" stroke-width="3" stroke-linecap="round" />
  <path d="M166 158V72" stroke="#DCEBFF" stroke-opacity="0.08" stroke-width="3" stroke-linecap="round" />

  <path
        d="M86 144L108 128L126 134L150 104L168 90"
        stroke="url(#line-fill)"
        stroke-width="8"
        stroke-linecap="round"
        stroke-linejoin="round"
    />
  <circle cx="168" cy="90" r="9" fill="#F8D78D" />
  <circle cx="168" cy="90" r="3.5" fill="#15365B" />

  <rect x="85" y="162" width="24" height="50" rx="8" fill="url(#bar-a)" />
  <rect x="116" y="148" width="24" height="64" rx="8" fill="url(#bar-b)" />
  <rect x="147" y="170" width="24" height="42" rx="8" fill="url(#bar-c)" />
</svg>
